<svg width="200" height="148" xmlns="http://www.w3.org/2000/svg"><g fill="none"><path d="M80.032 43.421H200V55.43H80.032V43.42zm0 24.55H200v12.016H80.032V67.97zm0 24.563H200v12.009H80.032V92.534z" fill="#8A8A8A"/><path fill="#EA0070" d="M36.684 22.988l17.328 31.1L68.88 31.07h131.08V19.062H62.35L54.77 30.79 37.615 0 13.256 36.435H0v12.009h19.666l17.018-25.456z"/><path fill="#70A800" d="M54.024 93.912l-17.328 31.1-17.018-25.455H.01v12.008h13.257L37.626 148l17.157-30.79 7.576 11.727H199.96V116.93H68.892L54.024 93.912z"/></g></svg>